<mxfile host="65bd71144e" modified="2021-02-10T15:35:50.227Z" agent="5.0 (Macintosh; Intel Mac OS X 11_2_0) AppleWebKit/537.36 (KHTML, like Gecko) Code/1.53.0 Chrome/87.0.4280.141 Electron/11.2.1 Safari/537.36" etag="AajKzVfz1qSW-8UjcKEF" version="14.2.4" type="embed">
    <diagram id="mvaz0GamuyzZKTOPocU4" name="Page-1">
        <mxGraphModel dx="920" dy="420" grid="1" gridSize="10" guides="1" tooltips="1" connect="1" arrows="1" fold="1" page="1" pageScale="1" pageWidth="827" pageHeight="1169" math="0" shadow="0">
            <root>
                <mxCell id="0"/>
                <mxCell id="1" parent="0"/>
                <mxCell id="2" value="tour_guide_relationship" style="shape=table;startSize=30;container=1;collapsible=1;childLayout=tableLayout;fixedRows=1;rowLines=0;fontStyle=1;align=center;resizeLast=1;" parent="1" vertex="1">
                    <mxGeometry x="40" y="86" width="180" height="130" as="geometry"/>
                </mxCell>
                <mxCell id="3" value="" style="shape=partialRectangle;collapsible=0;dropTarget=0;pointerEvents=0;fillColor=#1ba1e2;top=0;left=0;bottom=1;right=0;points=[[0,0.5],[1,0.5]];portConstraint=eastwest;strokeColor=#006EAF;fontColor=#ffffff;" parent="2" vertex="1">
                    <mxGeometry y="30" width="180" height="30" as="geometry"/>
                </mxCell>
                <mxCell id="4" value="PK" style="shape=partialRectangle;connectable=0;fillColor=none;top=0;left=0;bottom=0;right=0;fontStyle=1;overflow=hidden;" parent="3" vertex="1">
                    <mxGeometry width="30" height="30" as="geometry"/>
                </mxCell>
                <mxCell id="5" value="guide_rel_id (INT)" style="shape=partialRectangle;connectable=0;fillColor=none;top=0;left=0;bottom=0;right=0;align=left;spacingLeft=6;fontStyle=5;overflow=hidden;" parent="3" vertex="1">
                    <mxGeometry x="30" width="150" height="30" as="geometry"/>
                </mxCell>
                <mxCell id="6" value="" style="shape=partialRectangle;collapsible=0;dropTarget=0;pointerEvents=0;fillColor=#60a917;top=0;left=0;bottom=0;right=0;points=[[0,0.5],[1,0.5]];portConstraint=eastwest;strokeColor=#2D7600;fontColor=#ffffff;" parent="2" vertex="1">
                    <mxGeometry y="60" width="180" height="30" as="geometry"/>
                </mxCell>
                <mxCell id="7" value="FK" style="shape=partialRectangle;connectable=0;fillColor=none;top=0;left=0;bottom=0;right=0;editable=1;overflow=hidden;" parent="6" vertex="1">
                    <mxGeometry width="30" height="30" as="geometry"/>
                </mxCell>
                <mxCell id="8" value="guide_id (INT, NN)" style="shape=partialRectangle;connectable=0;fillColor=none;top=0;left=0;bottom=0;right=0;align=left;spacingLeft=6;overflow=hidden;" parent="6" vertex="1">
                    <mxGeometry x="30" width="150" height="30" as="geometry"/>
                </mxCell>
                <mxCell id="9" value="" style="shape=partialRectangle;collapsible=0;dropTarget=0;pointerEvents=0;fillColor=#60a917;top=0;left=0;bottom=0;right=0;points=[[0,0.5],[1,0.5]];portConstraint=eastwest;strokeColor=#2D7600;fontColor=#ffffff;" parent="2" vertex="1">
                    <mxGeometry y="90" width="180" height="30" as="geometry"/>
                </mxCell>
                <mxCell id="10" value="FK" style="shape=partialRectangle;connectable=0;fillColor=none;top=0;left=0;bottom=0;right=0;editable=1;overflow=hidden;" parent="9" vertex="1">
                    <mxGeometry width="30" height="30" as="geometry"/>
                </mxCell>
                <mxCell id="11" value="tour_id (INT, NN)" style="shape=partialRectangle;connectable=0;fillColor=none;top=0;left=0;bottom=0;right=0;align=left;spacingLeft=6;overflow=hidden;" parent="9" vertex="1">
                    <mxGeometry x="30" width="150" height="30" as="geometry"/>
                </mxCell>
                <mxCell id="21" value="tour" style="shape=table;startSize=30;container=1;collapsible=1;childLayout=tableLayout;fixedRows=1;rowLines=0;fontStyle=1;align=center;resizeLast=1;" parent="1" vertex="1">
                    <mxGeometry x="280" y="146" width="180" height="220" as="geometry"/>
                </mxCell>
                <mxCell id="22" value="" style="shape=partialRectangle;collapsible=0;dropTarget=0;pointerEvents=0;fillColor=#1ba1e2;top=0;left=0;bottom=1;right=0;points=[[0,0.5],[1,0.5]];portConstraint=eastwest;strokeColor=#006EAF;fontColor=#ffffff;" parent="21" vertex="1">
                    <mxGeometry y="30" width="180" height="30" as="geometry"/>
                </mxCell>
                <mxCell id="23" value="PK" style="shape=partialRectangle;connectable=0;fillColor=none;top=0;left=0;bottom=0;right=0;fontStyle=1;overflow=hidden;" parent="22" vertex="1">
                    <mxGeometry width="30" height="30" as="geometry"/>
                </mxCell>
                <mxCell id="24" value="tour_id (INT)" style="shape=partialRectangle;connectable=0;fillColor=none;top=0;left=0;bottom=0;right=0;align=left;spacingLeft=6;fontStyle=5;overflow=hidden;" parent="22" vertex="1">
                    <mxGeometry x="30" width="150" height="30" as="geometry"/>
                </mxCell>
                <mxCell id="25" value="" style="shape=partialRectangle;collapsible=0;dropTarget=0;pointerEvents=0;fillColor=none;top=0;left=0;bottom=0;right=0;points=[[0,0.5],[1,0.5]];portConstraint=eastwest;" parent="21" vertex="1">
                    <mxGeometry y="60" width="180" height="30" as="geometry"/>
                </mxCell>
                <mxCell id="26" value="" style="shape=partialRectangle;connectable=0;fillColor=none;top=0;left=0;bottom=0;right=0;editable=1;overflow=hidden;" parent="25" vertex="1">
                    <mxGeometry width="30" height="30" as="geometry"/>
                </mxCell>
                <mxCell id="27" value="name (TEXT, NN, U)" style="shape=partialRectangle;connectable=0;fillColor=none;top=0;left=0;bottom=0;right=0;align=left;spacingLeft=6;overflow=hidden;" parent="25" vertex="1">
                    <mxGeometry x="30" width="150" height="30" as="geometry"/>
                </mxCell>
                <mxCell id="28" value="" style="shape=partialRectangle;collapsible=0;dropTarget=0;pointerEvents=0;fillColor=none;top=0;left=0;bottom=0;right=0;points=[[0,0.5],[1,0.5]];portConstraint=eastwest;" parent="21" vertex="1">
                    <mxGeometry y="90" width="180" height="30" as="geometry"/>
                </mxCell>
                <mxCell id="29" value="" style="shape=partialRectangle;connectable=0;fillColor=none;top=0;left=0;bottom=0;right=0;editable=1;overflow=hidden;" parent="28" vertex="1">
                    <mxGeometry width="30" height="30" as="geometry"/>
                </mxCell>
                <mxCell id="30" value="start_datetime (TEXT)" style="shape=partialRectangle;connectable=0;fillColor=none;top=0;left=0;bottom=0;right=0;align=left;spacingLeft=6;overflow=hidden;" parent="28" vertex="1">
                    <mxGeometry x="30" width="150" height="30" as="geometry"/>
                </mxCell>
                <mxCell id="31" value="" style="shape=partialRectangle;collapsible=0;dropTarget=0;pointerEvents=0;fillColor=none;top=0;left=0;bottom=0;right=0;points=[[0,0.5],[1,0.5]];portConstraint=eastwest;" parent="21" vertex="1">
                    <mxGeometry y="120" width="180" height="30" as="geometry"/>
                </mxCell>
                <mxCell id="32" value="" style="shape=partialRectangle;connectable=0;fillColor=none;top=0;left=0;bottom=0;right=0;editable=1;overflow=hidden;" parent="31" vertex="1">
                    <mxGeometry width="30" height="30" as="geometry"/>
                </mxCell>
                <mxCell id="33" value="end_datetime (TEXT)" style="shape=partialRectangle;connectable=0;fillColor=none;top=0;left=0;bottom=0;right=0;align=left;spacingLeft=6;overflow=hidden;" parent="31" vertex="1">
                    <mxGeometry x="30" width="150" height="30" as="geometry"/>
                </mxCell>
                <mxCell id="73" value="" style="shape=partialRectangle;collapsible=0;dropTarget=0;pointerEvents=0;fillColor=none;top=0;left=0;bottom=0;right=0;points=[[0,0.5],[1,0.5]];portConstraint=eastwest;" vertex="1" parent="21">
                    <mxGeometry y="150" width="180" height="30" as="geometry"/>
                </mxCell>
                <mxCell id="74" value="" style="shape=partialRectangle;connectable=0;fillColor=none;top=0;left=0;bottom=0;right=0;editable=1;overflow=hidden;" vertex="1" parent="73">
                    <mxGeometry width="30" height="30" as="geometry"/>
                </mxCell>
                <mxCell id="75" value="start_location (TEXT)" style="shape=partialRectangle;connectable=0;fillColor=none;top=0;left=0;bottom=0;right=0;align=left;spacingLeft=6;overflow=hidden;" vertex="1" parent="73">
                    <mxGeometry x="30" width="150" height="30" as="geometry"/>
                </mxCell>
                <mxCell id="76" value="" style="shape=partialRectangle;collapsible=0;dropTarget=0;pointerEvents=0;fillColor=none;top=0;left=0;bottom=0;right=0;points=[[0,0.5],[1,0.5]];portConstraint=eastwest;" vertex="1" parent="21">
                    <mxGeometry y="180" width="180" height="30" as="geometry"/>
                </mxCell>
                <mxCell id="77" value="" style="shape=partialRectangle;connectable=0;fillColor=none;top=0;left=0;bottom=0;right=0;editable=1;overflow=hidden;" vertex="1" parent="76">
                    <mxGeometry width="30" height="30" as="geometry"/>
                </mxCell>
                <mxCell id="78" value="destination (TEXT)" style="shape=partialRectangle;connectable=0;fillColor=none;top=0;left=0;bottom=0;right=0;align=left;spacingLeft=6;overflow=hidden;" vertex="1" parent="76">
                    <mxGeometry x="30" width="150" height="30" as="geometry"/>
                </mxCell>
                <mxCell id="39" value="participant" style="shape=table;startSize=40;container=1;collapsible=1;childLayout=tableLayout;fixedRows=1;rowLines=0;fontStyle=1;align=center;resizeLast=1;" parent="1" vertex="1">
                    <mxGeometry x="520" y="256" width="180" height="160" as="geometry"/>
                </mxCell>
                <mxCell id="40" value="" style="shape=partialRectangle;collapsible=0;dropTarget=0;pointerEvents=0;fillColor=#1ba1e2;top=0;left=0;bottom=1;right=0;points=[[0,0.5],[1,0.5]];portConstraint=eastwest;strokeColor=#006EAF;fontColor=#ffffff;" parent="39" vertex="1">
                    <mxGeometry y="40" width="180" height="30" as="geometry"/>
                </mxCell>
                <mxCell id="41" value="PK" style="shape=partialRectangle;connectable=0;fillColor=none;top=0;left=0;bottom=0;right=0;fontStyle=1;overflow=hidden;" parent="40" vertex="1">
                    <mxGeometry width="30" height="30" as="geometry"/>
                </mxCell>
                <mxCell id="42" value="participant_id (INT)" style="shape=partialRectangle;connectable=0;fillColor=none;top=0;left=0;bottom=0;right=0;align=left;spacingLeft=6;fontStyle=5;overflow=hidden;" parent="40" vertex="1">
                    <mxGeometry x="30" width="150" height="30" as="geometry"/>
                </mxCell>
                <mxCell id="43" value="" style="shape=partialRectangle;collapsible=0;dropTarget=0;pointerEvents=0;fillColor=none;top=0;left=0;bottom=0;right=0;points=[[0,0.5],[1,0.5]];portConstraint=eastwest;" parent="39" vertex="1">
                    <mxGeometry y="70" width="180" height="30" as="geometry"/>
                </mxCell>
                <mxCell id="44" value="" style="shape=partialRectangle;connectable=0;fillColor=none;top=0;left=0;bottom=0;right=0;editable=1;overflow=hidden;" parent="43" vertex="1">
                    <mxGeometry width="30" height="30" as="geometry"/>
                </mxCell>
                <mxCell id="45" value="first_name (TEXT)" style="shape=partialRectangle;connectable=0;fillColor=none;top=0;left=0;bottom=0;right=0;align=left;spacingLeft=6;overflow=hidden;" parent="43" vertex="1">
                    <mxGeometry x="30" width="150" height="30" as="geometry"/>
                </mxCell>
                <mxCell id="46" value="" style="shape=partialRectangle;collapsible=0;dropTarget=0;pointerEvents=0;fillColor=none;top=0;left=0;bottom=0;right=0;points=[[0,0.5],[1,0.5]];portConstraint=eastwest;" parent="39" vertex="1">
                    <mxGeometry y="100" width="180" height="30" as="geometry"/>
                </mxCell>
                <mxCell id="47" value="" style="shape=partialRectangle;connectable=0;fillColor=none;top=0;left=0;bottom=0;right=0;editable=1;overflow=hidden;" parent="46" vertex="1">
                    <mxGeometry width="30" height="30" as="geometry"/>
                </mxCell>
                <mxCell id="48" value="last_name (TEXT)" style="shape=partialRectangle;connectable=0;fillColor=none;top=0;left=0;bottom=0;right=0;align=left;spacingLeft=6;overflow=hidden;" parent="46" vertex="1">
                    <mxGeometry x="30" width="150" height="30" as="geometry"/>
                </mxCell>
                <mxCell id="49" value="" style="shape=partialRectangle;collapsible=0;dropTarget=0;pointerEvents=0;fillColor=none;top=0;left=0;bottom=0;right=0;points=[[0,0.5],[1,0.5]];portConstraint=eastwest;" parent="39" vertex="1">
                    <mxGeometry y="130" width="180" height="30" as="geometry"/>
                </mxCell>
                <mxCell id="50" value="" style="shape=partialRectangle;connectable=0;fillColor=none;top=0;left=0;bottom=0;right=0;editable=1;overflow=hidden;" parent="49" vertex="1">
                    <mxGeometry width="30" height="30" as="geometry"/>
                </mxCell>
                <mxCell id="51" value="email (TEXT, NN, U)" style="shape=partialRectangle;connectable=0;fillColor=none;top=0;left=0;bottom=0;right=0;align=left;spacingLeft=6;overflow=hidden;" parent="49" vertex="1">
                    <mxGeometry x="30" width="150" height="30" as="geometry"/>
                </mxCell>
                <mxCell id="59" value="Ex. 3.2 Losty Group Tours" style="text;html=1;strokeColor=none;fillColor=none;align=left;verticalAlign=middle;whiteSpace=wrap;rounded=0;fontStyle=1;fontSize=13;" parent="1" vertex="1">
                    <mxGeometry x="40" y="46" width="250" height="20" as="geometry"/>
                </mxCell>
                <mxCell id="60" value="guide" style="shape=table;startSize=30;container=1;collapsible=1;childLayout=tableLayout;fixedRows=1;rowLines=0;fontStyle=1;align=center;resizeLast=1;" vertex="1" parent="1">
                    <mxGeometry x="40" y="256" width="180" height="160" as="geometry"/>
                </mxCell>
                <mxCell id="61" value="" style="shape=partialRectangle;collapsible=0;dropTarget=0;pointerEvents=0;fillColor=#1ba1e2;top=0;left=0;bottom=1;right=0;points=[[0,0.5],[1,0.5]];portConstraint=eastwest;strokeColor=#006EAF;fontColor=#ffffff;" vertex="1" parent="60">
                    <mxGeometry y="30" width="180" height="30" as="geometry"/>
                </mxCell>
                <mxCell id="62" value="PK" style="shape=partialRectangle;connectable=0;fillColor=none;top=0;left=0;bottom=0;right=0;fontStyle=1;overflow=hidden;" vertex="1" parent="61">
                    <mxGeometry width="30" height="30" as="geometry"/>
                </mxCell>
                <mxCell id="63" value="guide_id (INT)" style="shape=partialRectangle;connectable=0;fillColor=none;top=0;left=0;bottom=0;right=0;align=left;spacingLeft=6;fontStyle=5;overflow=hidden;" vertex="1" parent="61">
                    <mxGeometry x="30" width="150" height="30" as="geometry"/>
                </mxCell>
                <mxCell id="64" value="" style="shape=partialRectangle;collapsible=0;dropTarget=0;pointerEvents=0;fillColor=none;top=0;left=0;bottom=0;right=0;points=[[0,0.5],[1,0.5]];portConstraint=eastwest;" vertex="1" parent="60">
                    <mxGeometry y="60" width="180" height="30" as="geometry"/>
                </mxCell>
                <mxCell id="65" value="" style="shape=partialRectangle;connectable=0;fillColor=none;top=0;left=0;bottom=0;right=0;editable=1;overflow=hidden;" vertex="1" parent="64">
                    <mxGeometry width="30" height="30" as="geometry"/>
                </mxCell>
                <mxCell id="66" value="first_name (TEXT)" style="shape=partialRectangle;connectable=0;fillColor=none;top=0;left=0;bottom=0;right=0;align=left;spacingLeft=6;overflow=hidden;" vertex="1" parent="64">
                    <mxGeometry x="30" width="150" height="30" as="geometry"/>
                </mxCell>
                <mxCell id="67" value="" style="shape=partialRectangle;collapsible=0;dropTarget=0;pointerEvents=0;fillColor=none;top=0;left=0;bottom=0;right=0;points=[[0,0.5],[1,0.5]];portConstraint=eastwest;" vertex="1" parent="60">
                    <mxGeometry y="90" width="180" height="30" as="geometry"/>
                </mxCell>
                <mxCell id="68" value="" style="shape=partialRectangle;connectable=0;fillColor=none;top=0;left=0;bottom=0;right=0;editable=1;overflow=hidden;" vertex="1" parent="67">
                    <mxGeometry width="30" height="30" as="geometry"/>
                </mxCell>
                <mxCell id="69" value="last_name (TEXT)" style="shape=partialRectangle;connectable=0;fillColor=none;top=0;left=0;bottom=0;right=0;align=left;spacingLeft=6;overflow=hidden;" vertex="1" parent="67">
                    <mxGeometry x="30" width="150" height="30" as="geometry"/>
                </mxCell>
                <mxCell id="70" value="" style="shape=partialRectangle;collapsible=0;dropTarget=0;pointerEvents=0;fillColor=none;top=0;left=0;bottom=0;right=0;points=[[0,0.5],[1,0.5]];portConstraint=eastwest;" vertex="1" parent="60">
                    <mxGeometry y="120" width="180" height="30" as="geometry"/>
                </mxCell>
                <mxCell id="71" value="" style="shape=partialRectangle;connectable=0;fillColor=none;top=0;left=0;bottom=0;right=0;editable=1;overflow=hidden;" vertex="1" parent="70">
                    <mxGeometry width="30" height="30" as="geometry"/>
                </mxCell>
                <mxCell id="72" value="email (TEXT, NN, U)" style="shape=partialRectangle;connectable=0;fillColor=none;top=0;left=0;bottom=0;right=0;align=left;spacingLeft=6;overflow=hidden;" vertex="1" parent="70">
                    <mxGeometry x="30" width="150" height="30" as="geometry"/>
                </mxCell>
                <mxCell id="79" style="edgeStyle=orthogonalEdgeStyle;rounded=0;orthogonalLoop=1;jettySize=auto;html=1;entryX=0;entryY=0.5;entryDx=0;entryDy=0;endArrow=ERoneToMany;endFill=0;startArrow=ERzeroToMany;startFill=1;" edge="1" parent="1" source="61" target="6">
                    <mxGeometry relative="1" as="geometry"/>
                </mxCell>
                <mxCell id="80" style="edgeStyle=orthogonalEdgeStyle;rounded=0;orthogonalLoop=1;jettySize=auto;html=1;entryX=1;entryY=0.5;entryDx=0;entryDy=0;endArrow=ERoneToMany;endFill=0;startArrow=ERone;startFill=0;" edge="1" parent="1" source="22" target="9">
                    <mxGeometry relative="1" as="geometry"/>
                </mxCell>
                <mxCell id="81" value="tour_participant_relationship" style="shape=table;startSize=40;container=1;collapsible=1;childLayout=tableLayout;fixedRows=1;rowLines=0;fontStyle=1;align=center;resizeLast=1;" vertex="1" parent="1">
                    <mxGeometry x="521" y="109" width="180" height="124" as="geometry"/>
                </mxCell>
                <mxCell id="82" value="" style="shape=partialRectangle;collapsible=0;dropTarget=0;pointerEvents=0;fillColor=#1ba1e2;top=0;left=0;bottom=1;right=0;points=[[0,0.5],[1,0.5]];portConstraint=eastwest;strokeColor=#006EAF;fontColor=#ffffff;" vertex="1" parent="81">
                    <mxGeometry y="40" width="180" height="30" as="geometry"/>
                </mxCell>
                <mxCell id="83" value="PK" style="shape=partialRectangle;connectable=0;fillColor=none;top=0;left=0;bottom=0;right=0;fontStyle=1;overflow=hidden;" vertex="1" parent="82">
                    <mxGeometry width="30" height="30" as="geometry"/>
                </mxCell>
                <mxCell id="84" value="participant_rel_id (INT)" style="shape=partialRectangle;connectable=0;fillColor=none;top=0;left=0;bottom=0;right=0;align=left;spacingLeft=6;fontStyle=5;overflow=hidden;" vertex="1" parent="82">
                    <mxGeometry x="30" width="150" height="30" as="geometry"/>
                </mxCell>
                <mxCell id="85" value="" style="shape=partialRectangle;collapsible=0;dropTarget=0;pointerEvents=0;fillColor=#60a917;top=0;left=0;bottom=0;right=0;points=[[0,0.5],[1,0.5]];portConstraint=eastwest;strokeColor=#2D7600;fontColor=#ffffff;" vertex="1" parent="81">
                    <mxGeometry y="70" width="180" height="24" as="geometry"/>
                </mxCell>
                <mxCell id="86" value="FK" style="shape=partialRectangle;connectable=0;fillColor=none;top=0;left=0;bottom=0;right=0;editable=1;overflow=hidden;" vertex="1" parent="85">
                    <mxGeometry width="30" height="24" as="geometry"/>
                </mxCell>
                <mxCell id="87" value="tour_id (INT, NN)" style="shape=partialRectangle;connectable=0;fillColor=none;top=0;left=0;bottom=0;right=0;align=left;spacingLeft=6;overflow=hidden;" vertex="1" parent="85">
                    <mxGeometry x="30" width="150" height="24" as="geometry"/>
                </mxCell>
                <mxCell id="88" value="" style="shape=partialRectangle;collapsible=0;dropTarget=0;pointerEvents=0;fillColor=#60a917;top=0;left=0;bottom=0;right=0;points=[[0,0.5],[1,0.5]];portConstraint=eastwest;strokeColor=#2D7600;fontColor=#ffffff;" vertex="1" parent="81">
                    <mxGeometry y="94" width="180" height="30" as="geometry"/>
                </mxCell>
                <mxCell id="89" value="FK" style="shape=partialRectangle;connectable=0;fillColor=none;top=0;left=0;bottom=0;right=0;editable=1;overflow=hidden;" vertex="1" parent="88">
                    <mxGeometry width="30" height="30" as="geometry"/>
                </mxCell>
                <mxCell id="90" value="participant_id (INT, NN)" style="shape=partialRectangle;connectable=0;fillColor=none;top=0;left=0;bottom=0;right=0;align=left;spacingLeft=6;overflow=hidden;" vertex="1" parent="88">
                    <mxGeometry x="30" width="150" height="30" as="geometry"/>
                </mxCell>
                <mxCell id="94" style="edgeStyle=orthogonalEdgeStyle;rounded=0;orthogonalLoop=1;jettySize=auto;html=1;entryX=1;entryY=0.5;entryDx=0;entryDy=0;exitX=1;exitY=0.5;exitDx=0;exitDy=0;endArrow=ERoneToMany;endFill=0;startArrow=ERzeroToMany;startFill=1;" edge="1" parent="1" source="40" target="88">
                    <mxGeometry relative="1" as="geometry"/>
                </mxCell>
                <mxCell id="95" style="edgeStyle=orthogonalEdgeStyle;rounded=0;orthogonalLoop=1;jettySize=auto;html=1;entryX=0;entryY=0.5;entryDx=0;entryDy=0;startArrow=ERone;startFill=0;endArrow=ERoneToMany;endFill=0;" edge="1" parent="1" source="22" target="85">
                    <mxGeometry relative="1" as="geometry"/>
                </mxCell>
            </root>
        </mxGraphModel>
    </diagram>
</mxfile>